<?xml version="1.0" encoding="UTF-8"?><svg xmlns="http://www.w3.org/2000/svg" xmlns:xlink="http://www.w3.org/1999/xlink" height="1600.0" preserveAspectRatio="xMidYMid meet" version="1.0" viewBox="7.1 7.1 1600.0 1600.0" width="1600.0" zoomAndPan="magnify"><g id="change1_1"><path d="m1111.5 1167.7c12.699-133.31 10.559-258.62 8.2264-320.42l-143.8 249.06 0.2117 0.3142c-0.0488 0.0328-0.2675 0.1794-0.64 0.4279l-0.493 0.8541h-0.7924c-17.706 11.733-154.61 101.31-316.72 175.42-101.92 46.596-193.85 78.116-273.23 93.686-51.269 10.056-97.471 13.434-138.33 10.185 144.4 142.12 342.52 229.81 561.13 229.81 60.049 0 118.55-6.6301 174.82-19.173 29.582-34.931 54.808-82.6 75.345-142.53 25.58-74.648 43.843-168.06 54.28-277.63z" fill="inherit"/></g><g id="change1_2"><path d="m639.1 516.15h0.7925c17.706-11.734 154.61-101.31 316.72-175.42 101.92-46.596 193.85-78.116 273.23-93.685 51.269-10.056 97.471-13.434 138.33-10.185-144.4-142.12-342.52-229.81-561.13-229.81-60.049 0-118.55 6.6301-174.82 19.173-29.582 34.931-54.808 82.6-75.345 142.53-25.58 74.648-43.843 168.06-54.28 277.63-12.699 133.31-10.559 258.62-8.2264 320.42l143.8-249.06-0.2115-0.3142c0.0487-0.0328 0.2673-0.1794 0.6399-0.4278l0.4931-0.8543z" fill="inherit"/></g><g id="change1_3"><path d="m1234.8 271.26c-77.438 15.171-167.46 46.06-267.58 91.809-121.8 55.659-229.25 120.16-281.61 153.09h287.59l0.1664-0.3403c0.0529 0.0258 0.2892 0.1418 0.6906 0.3403h0.9865l0.396 0.6862c19.015 9.4673 165.04 83.238 310.28 186.58 91.316 64.972 164.58 128.82 217.75 189.78 34.431 39.473 60.501 77.891 78.119 114.99 16.643-64.267 25.504-131.67 25.504-201.14 0-209.04-80.185-399.34-211.46-541.86-44.988-8.0972-98.791-6.0956-160.84 6.0609z" fill="inherit"/></g><g id="change1_4"><path d="m1484.9 909.55c-51.857-59.477-123.62-122-213.3-185.83-109.1-77.654-218.69-138.45-273.38-167.34l143.8 249.06 0.3779-0.0261c4e-3 0.0587 0.0217 0.3212 0.0505 0.7682l0.493 0.8542-0.3961 0.6861c1.3085 21.201 10.435 184.55-6.4392 362-10.609 111.57-29.276 206.94-55.482 283.47-16.969 49.555-37.205 91.341-60.524 125.15 261.82-72.164 469.85-274.06 550.59-532.21-15.454-43.107-44.133-88.813-85.791-136.59z" fill="inherit"/></g><g id="change1_5"><path d="m379.35 1342.8c77.438-15.171 167.46-46.06 267.58-91.809 121.8-55.659 229.25-120.16 281.61-153.09h-287.59l-0.1664 0.3403c-0.0529-0.0259-0.2892-0.1418-0.6906-0.3403h-0.9865l-0.396-0.6862c-19.015-9.4673-165.04-83.238-310.28-186.58-91.316-64.972-164.58-128.82-217.75-189.78-34.432-39.473-60.501-77.891-78.119-114.99-16.642 64.267-25.504 131.67-25.504 201.14 0 209.04 80.185 399.34 211.46 541.86 44.988 8.0972 98.791 6.0955 160.84-6.061z" fill="inherit"/></g><g id="change1_6"><path d="m129.19 704.55c51.857 59.477 123.62 122 213.3 185.83 109.1 77.654 218.69 138.45 273.38 167.34l-143.8-249.06-0.3779 0.026c-4e-3 -0.0586-0.0217-0.3212-0.0505-0.7681l-0.4931-0.8542 0.3961-0.6862c-1.3083-21.201-10.435-184.55 6.4392-362 10.609-111.57 29.276-206.94 55.482-283.47 16.969-49.555 37.205-91.341 60.524-125.15-261.82 72.164-469.85 274.06-550.59 532.21 15.454 43.107 44.133 88.813 85.791 136.59z" fill="inherit"/></g></svg>